# xmcd
#
# Track frame offsets:
#   150
#   19142
#   40126
#   57603
#   81865
#   98718
#   116509
#   137905
#   162059
#   181680
#   197937
#   214588
#   231899
#   247876
#   264729
#   285402
#   302942
#   321987
#
# Disc length: 4612 seconds
#
# Revision: 0
# Processed by: cddbd v1.5.1PL0 Copyright (c) Steve Scherf et al.
# Submitted via: Click'N Design 3D 4.8
#
DISCID=fd120212
DTITLE=ASSORTED SONGS# 1 - KEITH URBAN 
DYEAR=2005
DGENRE=Country
TTITLE0=MAKING MEMORIES
TTITLE1=THE HARD WAY
TTITLE2=TANGLED UP IN LOVE
TTITLE3=NOBODY DRINKS ALONE
TTITLE4=A GIRL LIKE THAT
TTITLE5=DAYS GO BY
TTITLE6=BETTER LIFE
TTITLE7=I COULD FLY
TTITLE8=TONIGHT I WANNA CRY
TTITLE9=BLUE JEANS
TTITLE10=WHENEVER I RUN
TTITLE11=YOU LOOK GOOD IN MY SHIRT
TTITLE12=GOOD MORNING BEAUTIFUL
TTITLE13=ITS A LOVE THING 
TTITLE14=BUT FOR THE GRACE OF GOD 
TTITLE15=I THOUGHT YOU KNEW
TTITLE16=YOURE EVERYTHING
TTITLE17=LOVE SOMEBODY LIKE YOU
EXTD=
EXTT0=
EXTT1=
EXTT2=
EXTT3=
EXTT4=
EXTT5=
EXTT6=
EXTT7=
EXTT8=
EXTT9=
EXTT10=
EXTT11=
EXTT12=
EXTT13=
EXTT14=
EXTT15=
EXTT16=
EXTT17=
PLAYORDER=
